<svg id="Ebene_1" data-name="Ebene 1" xmlns="http://www.w3.org/2000/svg" viewBox="0 0 70 70"><path d="M34.9694,11.8144A23.1856,23.1856,0,1,1,11.7838,35,23.2118,23.2118,0,0,1,34.9694,11.8144m0-2A25.1856,25.1856,0,1,0,60.155,35,25.1856,25.1856,0,0,0,34.9694,9.8144Z" fill="#474647"/><circle cx="34.9694" cy="35" r="18.1099" fill="#1e1e1e"/><polygon points="29 35 35 13 41 35 29 35" fill="#bc2121"/><polygon points="35 35 35 13 29 35 35 35" fill="#9b1918"/><polygon points="35 35 35 20.39 32.876 35 35 35" fill="#841814"/><polygon points="40.969 35 34.969 57 28.969 35 40.969 35" fill="#ededed"/><polygon points="34.969 35 34.969 57 40.969 35 34.969 35" fill="#c7c6c6"/><polygon points="34.969 35 34.969 49.61 37.093 35 34.969 35" fill="#b7b7b7"/><path d="M31.6232,8.0835V0H33.758l1.6787,2.9624a23.268,23.268,0,0,1,1.3193,2.77h.0361a29.9636,29.9636,0,0,1-.1552-3.37V0h1.6787V8.0835h-1.919L34.6691,4.9653a30.0533,30.0533,0,0,1-1.4023-2.8545l-.0362.0118c.0479,1.0678.0713,2.207.0713,3.5263V8.0835Z" fill="#bc2121"/><path d="M37.3747,63.667a4.6814,4.6814,0,0,0-2.0274-.5029c-.84,0-1.2832.3476-1.2832.8759,0,.503.3838.7911,1.3555,1.1387,1.3428.4678,2.2187,1.2109,2.2187,2.3867C37.6383,68.9443,36.487,70,34.58,70a4.97,4.97,0,0,1-2.0625-.4072l.4073-1.4756a3.8529,3.8529,0,0,0,1.6914.3838c.791,0,1.1748-.3594,1.1748-.7793,0-.5156-.4551-.7442-1.499-1.14-1.4268-.5283-2.0987-1.2715-2.0987-2.4111,0-1.3555,1.043-2.5059,3.2627-2.5059a5.3017,5.3017,0,0,1,2.29.4912Z" fill="#ededed"/><path d="M65.3345,37.07V34.0951h-1.919v3.3223h-1.499V32.26H70v4.9892H68.501V34.0951H66.8218V37.07Z" fill="#ededed"/><path d="M8.0835,38.2383,0,40.1572V38.2021L3.334,37.59c.9595-.18,2.0029-.3476,2.8183-.48v-.0239c-.8754-.1323-1.8466-.3242-2.8422-.5278L0,35.8755V33.9326l3.4062-.6479c.9473-.18,1.8111-.3116,2.71-.4317v-.0239c-.8994-.12-1.8472-.3-2.8066-.4678L0,31.7017V29.8428L8.0835,31.93v1.9785l-3.478.6841c-.8155.1557-1.5713.2876-2.4947.3838V35c.9117.1436,1.6792.2759,2.4947.4678l3.478.7676Z" fill="#ededed"/></svg>